<mxfile host="app.diagrams.net" modified="2021-05-15T21:32:48.093Z" agent="5.0 (Windows NT 10.0; Win64; x64) AppleWebKit/537.36 (KHTML, like Gecko) Chrome/90.0.4430.212 Safari/537.36 Edg/90.0.818.62" etag="dLrkBoEcEu5ezEPnzw05" version="14.6.13" type="github">
  <diagram id="C5RBs43oDa-KdzZeNtuy" name="Page-1">
    <mxGraphModel dx="2394" dy="633" grid="1" gridSize="10" guides="1" tooltips="1" connect="1" arrows="1" fold="1" page="1" pageScale="1" pageWidth="827" pageHeight="1169" math="0" shadow="0">
      <root>
        <mxCell id="WIyWlLk6GJQsqaUBKTNV-0" />
        <mxCell id="WIyWlLk6GJQsqaUBKTNV-1" parent="WIyWlLk6GJQsqaUBKTNV-0" />
        <mxCell id="QdtFReI3HZT-71ODESwy-89" style="edgeStyle=orthogonalEdgeStyle;rounded=0;orthogonalLoop=1;jettySize=auto;html=1;exitX=0.5;exitY=1;exitDx=0;exitDy=0;entryX=0.45;entryY=-0.008;entryDx=0;entryDy=0;entryPerimeter=0;" edge="1" parent="WIyWlLk6GJQsqaUBKTNV-1" source="WIyWlLk6GJQsqaUBKTNV-3" target="QdtFReI3HZT-71ODESwy-0">
          <mxGeometry relative="1" as="geometry" />
        </mxCell>
        <mxCell id="WIyWlLk6GJQsqaUBKTNV-3" value="GET CURRENCY PAIR HISTORICAL DATA" style="rounded=1;whiteSpace=wrap;html=1;fontSize=12;glass=0;strokeWidth=1;shadow=0;" parent="WIyWlLk6GJQsqaUBKTNV-1" vertex="1">
          <mxGeometry x="180" y="190" width="120" height="40" as="geometry" />
        </mxCell>
        <mxCell id="QdtFReI3HZT-71ODESwy-15" style="edgeStyle=orthogonalEdgeStyle;rounded=0;orthogonalLoop=1;jettySize=auto;html=1;exitX=0.5;exitY=1;exitDx=0;exitDy=0;entryX=0.5;entryY=0;entryDx=0;entryDy=0;" edge="1" parent="WIyWlLk6GJQsqaUBKTNV-1" source="QdtFReI3HZT-71ODESwy-0" target="QdtFReI3HZT-71ODESwy-7">
          <mxGeometry relative="1" as="geometry" />
        </mxCell>
        <mxCell id="QdtFReI3HZT-71ODESwy-0" value="WAVELET TRANSFORMATION DENOISING AND DATA&amp;nbsp; NORMALIZATION&amp;nbsp;" style="rounded=1;whiteSpace=wrap;html=1;fontSize=12;glass=0;strokeWidth=1;shadow=0;" vertex="1" parent="WIyWlLk6GJQsqaUBKTNV-1">
          <mxGeometry x="90" y="280" width="330" height="30" as="geometry" />
        </mxCell>
        <mxCell id="QdtFReI3HZT-71ODESwy-25" style="edgeStyle=orthogonalEdgeStyle;rounded=0;orthogonalLoop=1;jettySize=auto;html=1;exitX=0.5;exitY=1;exitDx=0;exitDy=0;entryX=0.5;entryY=0;entryDx=0;entryDy=0;" edge="1" parent="WIyWlLk6GJQsqaUBKTNV-1" source="QdtFReI3HZT-71ODESwy-3" target="WIyWlLk6GJQsqaUBKTNV-3">
          <mxGeometry relative="1" as="geometry" />
        </mxCell>
        <mxCell id="QdtFReI3HZT-71ODESwy-3" value="START" style="rounded=1;whiteSpace=wrap;html=1;" vertex="1" parent="WIyWlLk6GJQsqaUBKTNV-1">
          <mxGeometry x="180" y="90" width="120" height="60" as="geometry" />
        </mxCell>
        <mxCell id="QdtFReI3HZT-71ODESwy-19" style="edgeStyle=orthogonalEdgeStyle;rounded=0;orthogonalLoop=1;jettySize=auto;html=1;exitX=0.25;exitY=1;exitDx=0;exitDy=0;entryX=0.5;entryY=0;entryDx=0;entryDy=0;" edge="1" parent="WIyWlLk6GJQsqaUBKTNV-1" source="QdtFReI3HZT-71ODESwy-7" target="QdtFReI3HZT-71ODESwy-9">
          <mxGeometry relative="1" as="geometry">
            <Array as="points">
              <mxPoint x="230" y="380" />
              <mxPoint x="230" y="410" />
              <mxPoint x="200" y="410" />
            </Array>
          </mxGeometry>
        </mxCell>
        <mxCell id="QdtFReI3HZT-71ODESwy-24" style="edgeStyle=orthogonalEdgeStyle;rounded=0;orthogonalLoop=1;jettySize=auto;html=1;exitX=0.75;exitY=1;exitDx=0;exitDy=0;entryX=0.25;entryY=0;entryDx=0;entryDy=0;" edge="1" parent="WIyWlLk6GJQsqaUBKTNV-1" source="QdtFReI3HZT-71ODESwy-7" target="QdtFReI3HZT-71ODESwy-10">
          <mxGeometry relative="1" as="geometry" />
        </mxCell>
        <mxCell id="QdtFReI3HZT-71ODESwy-93" style="edgeStyle=orthogonalEdgeStyle;rounded=0;orthogonalLoop=1;jettySize=auto;html=1;exitX=1;exitY=1;exitDx=0;exitDy=0;entryX=0.25;entryY=0;entryDx=0;entryDy=0;" edge="1" parent="WIyWlLk6GJQsqaUBKTNV-1" source="QdtFReI3HZT-71ODESwy-7" target="QdtFReI3HZT-71ODESwy-11">
          <mxGeometry relative="1" as="geometry" />
        </mxCell>
        <mxCell id="QdtFReI3HZT-71ODESwy-94" style="edgeStyle=orthogonalEdgeStyle;rounded=0;orthogonalLoop=1;jettySize=auto;html=1;exitX=0;exitY=1;exitDx=0;exitDy=0;" edge="1" parent="WIyWlLk6GJQsqaUBKTNV-1" source="QdtFReI3HZT-71ODESwy-7" target="QdtFReI3HZT-71ODESwy-8">
          <mxGeometry relative="1" as="geometry" />
        </mxCell>
        <mxCell id="QdtFReI3HZT-71ODESwy-7" value="REGULIZATION OF THE DATA TO THE FORM [BATCHSIZE,TIME STEP,INPUT SIZE]" style="rounded=1;whiteSpace=wrap;html=1;fontSize=12;glass=0;strokeWidth=1;shadow=0;" vertex="1" parent="WIyWlLk6GJQsqaUBKTNV-1">
          <mxGeometry x="70" y="340" width="370" height="40" as="geometry" />
        </mxCell>
        <mxCell id="QdtFReI3HZT-71ODESwy-32" style="edgeStyle=orthogonalEdgeStyle;rounded=0;orthogonalLoop=1;jettySize=auto;html=1;exitX=0.5;exitY=1;exitDx=0;exitDy=0;entryX=0.103;entryY=0.013;entryDx=0;entryDy=0;entryPerimeter=0;" edge="1" parent="WIyWlLk6GJQsqaUBKTNV-1" source="QdtFReI3HZT-71ODESwy-8" target="QdtFReI3HZT-71ODESwy-27">
          <mxGeometry relative="1" as="geometry" />
        </mxCell>
        <mxCell id="QdtFReI3HZT-71ODESwy-8" value="time step 1" style="whiteSpace=wrap;html=1;aspect=fixed;" vertex="1" parent="WIyWlLk6GJQsqaUBKTNV-1">
          <mxGeometry x="10" y="440" width="80" height="80" as="geometry" />
        </mxCell>
        <mxCell id="QdtFReI3HZT-71ODESwy-29" style="edgeStyle=orthogonalEdgeStyle;rounded=0;orthogonalLoop=1;jettySize=auto;html=1;exitX=0.5;exitY=1;exitDx=0;exitDy=0;" edge="1" parent="WIyWlLk6GJQsqaUBKTNV-1" source="QdtFReI3HZT-71ODESwy-9" target="QdtFReI3HZT-71ODESwy-27">
          <mxGeometry relative="1" as="geometry">
            <Array as="points">
              <mxPoint x="200" y="545" />
              <mxPoint x="230" y="545" />
            </Array>
          </mxGeometry>
        </mxCell>
        <mxCell id="QdtFReI3HZT-71ODESwy-9" value="time step 2" style="whiteSpace=wrap;html=1;aspect=fixed;" vertex="1" parent="WIyWlLk6GJQsqaUBKTNV-1">
          <mxGeometry x="160" y="440" width="80" height="80" as="geometry" />
        </mxCell>
        <mxCell id="QdtFReI3HZT-71ODESwy-30" style="edgeStyle=orthogonalEdgeStyle;rounded=0;orthogonalLoop=1;jettySize=auto;html=1;exitX=0.5;exitY=1;exitDx=0;exitDy=0;entryX=0.698;entryY=0.013;entryDx=0;entryDy=0;entryPerimeter=0;" edge="1" parent="WIyWlLk6GJQsqaUBKTNV-1" source="QdtFReI3HZT-71ODESwy-10" target="QdtFReI3HZT-71ODESwy-27">
          <mxGeometry relative="1" as="geometry">
            <Array as="points">
              <mxPoint x="340" y="520" />
              <mxPoint x="340" y="545" />
              <mxPoint x="321" y="545" />
            </Array>
          </mxGeometry>
        </mxCell>
        <mxCell id="QdtFReI3HZT-71ODESwy-10" value="..." style="whiteSpace=wrap;html=1;aspect=fixed;" vertex="1" parent="WIyWlLk6GJQsqaUBKTNV-1">
          <mxGeometry x="280" y="440" width="80" height="80" as="geometry" />
        </mxCell>
        <mxCell id="QdtFReI3HZT-71ODESwy-31" style="edgeStyle=orthogonalEdgeStyle;rounded=0;orthogonalLoop=1;jettySize=auto;html=1;exitX=0.5;exitY=1;exitDx=0;exitDy=0;entryX=0.861;entryY=0;entryDx=0;entryDy=0;entryPerimeter=0;" edge="1" parent="WIyWlLk6GJQsqaUBKTNV-1" source="QdtFReI3HZT-71ODESwy-11" target="QdtFReI3HZT-71ODESwy-27">
          <mxGeometry relative="1" as="geometry">
            <mxPoint x="380" y="560" as="targetPoint" />
            <Array as="points">
              <mxPoint x="430" y="540" />
              <mxPoint x="380" y="540" />
            </Array>
          </mxGeometry>
        </mxCell>
        <mxCell id="QdtFReI3HZT-71ODESwy-11" value="time step N" style="whiteSpace=wrap;html=1;aspect=fixed;" vertex="1" parent="WIyWlLk6GJQsqaUBKTNV-1">
          <mxGeometry x="390" y="440" width="80" height="80" as="geometry" />
        </mxCell>
        <mxCell id="QdtFReI3HZT-71ODESwy-40" style="edgeStyle=orthogonalEdgeStyle;rounded=0;orthogonalLoop=1;jettySize=auto;html=1;entryX=0.407;entryY=0.002;entryDx=0;entryDy=0;entryPerimeter=0;" edge="1" parent="WIyWlLk6GJQsqaUBKTNV-1" source="QdtFReI3HZT-71ODESwy-27" target="QdtFReI3HZT-71ODESwy-35">
          <mxGeometry relative="1" as="geometry" />
        </mxCell>
        <mxCell id="QdtFReI3HZT-71ODESwy-41" style="edgeStyle=orthogonalEdgeStyle;rounded=0;orthogonalLoop=1;jettySize=auto;html=1;exitX=1;exitY=0.5;exitDx=0;exitDy=0;entryX=0.5;entryY=0;entryDx=0;entryDy=0;" edge="1" parent="WIyWlLk6GJQsqaUBKTNV-1" source="QdtFReI3HZT-71ODESwy-27" target="QdtFReI3HZT-71ODESwy-36">
          <mxGeometry relative="1" as="geometry" />
        </mxCell>
        <mxCell id="QdtFReI3HZT-71ODESwy-45" style="edgeStyle=orthogonalEdgeStyle;rounded=0;orthogonalLoop=1;jettySize=auto;html=1;exitX=0.75;exitY=1;exitDx=0;exitDy=0;entryX=0.5;entryY=0;entryDx=0;entryDy=0;" edge="1" parent="WIyWlLk6GJQsqaUBKTNV-1" source="QdtFReI3HZT-71ODESwy-27" target="QdtFReI3HZT-71ODESwy-33">
          <mxGeometry relative="1" as="geometry" />
        </mxCell>
        <mxCell id="QdtFReI3HZT-71ODESwy-46" style="edgeStyle=orthogonalEdgeStyle;rounded=0;orthogonalLoop=1;jettySize=auto;html=1;exitX=0.25;exitY=1;exitDx=0;exitDy=0;entryX=0.606;entryY=-0.042;entryDx=0;entryDy=0;entryPerimeter=0;" edge="1" parent="WIyWlLk6GJQsqaUBKTNV-1" source="QdtFReI3HZT-71ODESwy-27" target="QdtFReI3HZT-71ODESwy-34">
          <mxGeometry relative="1" as="geometry" />
        </mxCell>
        <mxCell id="QdtFReI3HZT-71ODESwy-27" value="initialization of the LSTM model parameters" style="rounded=0;whiteSpace=wrap;html=1;" vertex="1" parent="WIyWlLk6GJQsqaUBKTNV-1">
          <mxGeometry x="70" y="570" width="360" height="60" as="geometry" />
        </mxCell>
        <mxCell id="QdtFReI3HZT-71ODESwy-57" style="edgeStyle=orthogonalEdgeStyle;rounded=0;orthogonalLoop=1;jettySize=auto;html=1;exitX=0.5;exitY=1;exitDx=0;exitDy=0;entryX=0.5;entryY=0;entryDx=0;entryDy=0;" edge="1" parent="WIyWlLk6GJQsqaUBKTNV-1" source="QdtFReI3HZT-71ODESwy-33" target="QdtFReI3HZT-71ODESwy-50">
          <mxGeometry relative="1" as="geometry" />
        </mxCell>
        <mxCell id="QdtFReI3HZT-71ODESwy-33" value="..." style="ellipse;whiteSpace=wrap;html=1;aspect=fixed;" vertex="1" parent="WIyWlLk6GJQsqaUBKTNV-1">
          <mxGeometry x="280" y="680" width="80" height="80" as="geometry" />
        </mxCell>
        <mxCell id="QdtFReI3HZT-71ODESwy-55" style="edgeStyle=orthogonalEdgeStyle;rounded=0;orthogonalLoop=1;jettySize=auto;html=1;exitX=0.5;exitY=1;exitDx=0;exitDy=0;entryX=0.5;entryY=0;entryDx=0;entryDy=0;" edge="1" parent="WIyWlLk6GJQsqaUBKTNV-1" source="QdtFReI3HZT-71ODESwy-34" target="QdtFReI3HZT-71ODESwy-51">
          <mxGeometry relative="1" as="geometry" />
        </mxCell>
        <mxCell id="QdtFReI3HZT-71ODESwy-34" value="X2" style="ellipse;whiteSpace=wrap;html=1;aspect=fixed;" vertex="1" parent="WIyWlLk6GJQsqaUBKTNV-1">
          <mxGeometry x="130" y="680" width="80" height="80" as="geometry" />
        </mxCell>
        <mxCell id="QdtFReI3HZT-71ODESwy-54" style="edgeStyle=orthogonalEdgeStyle;rounded=0;orthogonalLoop=1;jettySize=auto;html=1;exitX=0.5;exitY=1;exitDx=0;exitDy=0;entryX=0.575;entryY=-0.084;entryDx=0;entryDy=0;entryPerimeter=0;" edge="1" parent="WIyWlLk6GJQsqaUBKTNV-1" source="QdtFReI3HZT-71ODESwy-35" target="QdtFReI3HZT-71ODESwy-52">
          <mxGeometry relative="1" as="geometry" />
        </mxCell>
        <mxCell id="QdtFReI3HZT-71ODESwy-35" value="X1" style="ellipse;whiteSpace=wrap;html=1;aspect=fixed;" vertex="1" parent="WIyWlLk6GJQsqaUBKTNV-1">
          <mxGeometry x="-30" y="680" width="80" height="80" as="geometry" />
        </mxCell>
        <mxCell id="QdtFReI3HZT-71ODESwy-58" style="edgeStyle=orthogonalEdgeStyle;rounded=0;orthogonalLoop=1;jettySize=auto;html=1;exitX=0.5;exitY=1;exitDx=0;exitDy=0;" edge="1" parent="WIyWlLk6GJQsqaUBKTNV-1" source="QdtFReI3HZT-71ODESwy-36" target="QdtFReI3HZT-71ODESwy-49">
          <mxGeometry relative="1" as="geometry" />
        </mxCell>
        <mxCell id="QdtFReI3HZT-71ODESwy-36" value="Xt" style="ellipse;whiteSpace=wrap;html=1;aspect=fixed;" vertex="1" parent="WIyWlLk6GJQsqaUBKTNV-1">
          <mxGeometry x="460" y="680" width="80" height="80" as="geometry" />
        </mxCell>
        <mxCell id="QdtFReI3HZT-71ODESwy-69" style="edgeStyle=orthogonalEdgeStyle;rounded=0;orthogonalLoop=1;jettySize=auto;html=1;exitX=0.5;exitY=1;exitDx=0;exitDy=0;" edge="1" parent="WIyWlLk6GJQsqaUBKTNV-1" source="QdtFReI3HZT-71ODESwy-49" target="QdtFReI3HZT-71ODESwy-60">
          <mxGeometry relative="1" as="geometry" />
        </mxCell>
        <mxCell id="QdtFReI3HZT-71ODESwy-49" value="cell" style="rounded=0;whiteSpace=wrap;html=1;" vertex="1" parent="WIyWlLk6GJQsqaUBKTNV-1">
          <mxGeometry x="450" y="800" width="120" height="40" as="geometry" />
        </mxCell>
        <mxCell id="QdtFReI3HZT-71ODESwy-68" style="edgeStyle=orthogonalEdgeStyle;rounded=0;orthogonalLoop=1;jettySize=auto;html=1;entryX=0.385;entryY=0.002;entryDx=0;entryDy=0;entryPerimeter=0;" edge="1" parent="WIyWlLk6GJQsqaUBKTNV-1" source="QdtFReI3HZT-71ODESwy-50" target="QdtFReI3HZT-71ODESwy-59">
          <mxGeometry relative="1" as="geometry" />
        </mxCell>
        <mxCell id="QdtFReI3HZT-71ODESwy-97" style="edgeStyle=orthogonalEdgeStyle;rounded=0;orthogonalLoop=1;jettySize=auto;html=1;exitX=1;exitY=0.5;exitDx=0;exitDy=0;entryX=0;entryY=0.5;entryDx=0;entryDy=0;" edge="1" parent="WIyWlLk6GJQsqaUBKTNV-1" source="QdtFReI3HZT-71ODESwy-50" target="QdtFReI3HZT-71ODESwy-49">
          <mxGeometry relative="1" as="geometry" />
        </mxCell>
        <mxCell id="QdtFReI3HZT-71ODESwy-50" value="..." style="rounded=0;whiteSpace=wrap;html=1;" vertex="1" parent="WIyWlLk6GJQsqaUBKTNV-1">
          <mxGeometry x="270" y="800" width="120" height="40" as="geometry" />
        </mxCell>
        <mxCell id="QdtFReI3HZT-71ODESwy-65" style="edgeStyle=orthogonalEdgeStyle;rounded=0;orthogonalLoop=1;jettySize=auto;html=1;exitX=0.5;exitY=1;exitDx=0;exitDy=0;entryX=0.5;entryY=0;entryDx=0;entryDy=0;" edge="1" parent="WIyWlLk6GJQsqaUBKTNV-1" source="QdtFReI3HZT-71ODESwy-51" target="QdtFReI3HZT-71ODESwy-61">
          <mxGeometry relative="1" as="geometry" />
        </mxCell>
        <mxCell id="QdtFReI3HZT-71ODESwy-96" style="edgeStyle=orthogonalEdgeStyle;rounded=0;orthogonalLoop=1;jettySize=auto;html=1;exitX=1;exitY=0.5;exitDx=0;exitDy=0;entryX=0;entryY=0.5;entryDx=0;entryDy=0;" edge="1" parent="WIyWlLk6GJQsqaUBKTNV-1" source="QdtFReI3HZT-71ODESwy-51" target="QdtFReI3HZT-71ODESwy-50">
          <mxGeometry relative="1" as="geometry" />
        </mxCell>
        <mxCell id="QdtFReI3HZT-71ODESwy-51" value="cell" style="rounded=0;whiteSpace=wrap;html=1;" vertex="1" parent="WIyWlLk6GJQsqaUBKTNV-1">
          <mxGeometry x="90" y="800" width="120" height="40" as="geometry" />
        </mxCell>
        <mxCell id="QdtFReI3HZT-71ODESwy-64" style="edgeStyle=orthogonalEdgeStyle;rounded=0;orthogonalLoop=1;jettySize=auto;html=1;exitX=0.5;exitY=1;exitDx=0;exitDy=0;entryX=0.5;entryY=0;entryDx=0;entryDy=0;" edge="1" parent="WIyWlLk6GJQsqaUBKTNV-1" source="QdtFReI3HZT-71ODESwy-52" target="QdtFReI3HZT-71ODESwy-62">
          <mxGeometry relative="1" as="geometry" />
        </mxCell>
        <mxCell id="QdtFReI3HZT-71ODESwy-95" style="edgeStyle=orthogonalEdgeStyle;rounded=0;orthogonalLoop=1;jettySize=auto;html=1;exitX=1;exitY=0.5;exitDx=0;exitDy=0;entryX=0;entryY=0.5;entryDx=0;entryDy=0;" edge="1" parent="WIyWlLk6GJQsqaUBKTNV-1" source="QdtFReI3HZT-71ODESwy-52" target="QdtFReI3HZT-71ODESwy-51">
          <mxGeometry relative="1" as="geometry" />
        </mxCell>
        <mxCell id="QdtFReI3HZT-71ODESwy-52" value="cell" style="rounded=0;whiteSpace=wrap;html=1;" vertex="1" parent="WIyWlLk6GJQsqaUBKTNV-1">
          <mxGeometry x="-80" y="800" width="120" height="40" as="geometry" />
        </mxCell>
        <mxCell id="QdtFReI3HZT-71ODESwy-79" style="edgeStyle=orthogonalEdgeStyle;rounded=0;orthogonalLoop=1;jettySize=auto;html=1;exitX=0;exitY=0.5;exitDx=0;exitDy=0;entryX=0.589;entryY=0.013;entryDx=0;entryDy=0;entryPerimeter=0;" edge="1" parent="WIyWlLk6GJQsqaUBKTNV-1" source="QdtFReI3HZT-71ODESwy-59" target="QdtFReI3HZT-71ODESwy-70">
          <mxGeometry relative="1" as="geometry" />
        </mxCell>
        <mxCell id="QdtFReI3HZT-71ODESwy-59" value="..." style="ellipse;whiteSpace=wrap;html=1;aspect=fixed;" vertex="1" parent="WIyWlLk6GJQsqaUBKTNV-1">
          <mxGeometry x="310" y="880" width="80" height="80" as="geometry" />
        </mxCell>
        <mxCell id="QdtFReI3HZT-71ODESwy-82" style="edgeStyle=orthogonalEdgeStyle;rounded=0;orthogonalLoop=1;jettySize=auto;html=1;exitX=0.5;exitY=1;exitDx=0;exitDy=0;entryX=0.75;entryY=0;entryDx=0;entryDy=0;" edge="1" parent="WIyWlLk6GJQsqaUBKTNV-1" source="QdtFReI3HZT-71ODESwy-60" target="QdtFReI3HZT-71ODESwy-70">
          <mxGeometry relative="1" as="geometry" />
        </mxCell>
        <mxCell id="QdtFReI3HZT-71ODESwy-60" value="Ot" style="ellipse;whiteSpace=wrap;html=1;aspect=fixed;" vertex="1" parent="WIyWlLk6GJQsqaUBKTNV-1">
          <mxGeometry x="490" y="880" width="80" height="80" as="geometry" />
        </mxCell>
        <mxCell id="QdtFReI3HZT-71ODESwy-80" style="edgeStyle=orthogonalEdgeStyle;rounded=0;orthogonalLoop=1;jettySize=auto;html=1;exitX=1;exitY=0.5;exitDx=0;exitDy=0;entryX=0.459;entryY=0.032;entryDx=0;entryDy=0;entryPerimeter=0;" edge="1" parent="WIyWlLk6GJQsqaUBKTNV-1" source="QdtFReI3HZT-71ODESwy-61" target="QdtFReI3HZT-71ODESwy-70">
          <mxGeometry relative="1" as="geometry" />
        </mxCell>
        <mxCell id="QdtFReI3HZT-71ODESwy-61" value="O2" style="ellipse;whiteSpace=wrap;html=1;aspect=fixed;" vertex="1" parent="WIyWlLk6GJQsqaUBKTNV-1">
          <mxGeometry x="90" y="880" width="80" height="80" as="geometry" />
        </mxCell>
        <mxCell id="QdtFReI3HZT-71ODESwy-81" style="edgeStyle=orthogonalEdgeStyle;rounded=0;orthogonalLoop=1;jettySize=auto;html=1;exitX=0.5;exitY=1;exitDx=0;exitDy=0;entryX=0.25;entryY=0;entryDx=0;entryDy=0;" edge="1" parent="WIyWlLk6GJQsqaUBKTNV-1" source="QdtFReI3HZT-71ODESwy-62" target="QdtFReI3HZT-71ODESwy-70">
          <mxGeometry relative="1" as="geometry" />
        </mxCell>
        <mxCell id="QdtFReI3HZT-71ODESwy-62" value="O1" style="ellipse;whiteSpace=wrap;html=1;aspect=fixed;" vertex="1" parent="WIyWlLk6GJQsqaUBKTNV-1">
          <mxGeometry x="-50" y="880" width="80" height="80" as="geometry" />
        </mxCell>
        <mxCell id="QdtFReI3HZT-71ODESwy-88" style="edgeStyle=orthogonalEdgeStyle;rounded=0;orthogonalLoop=1;jettySize=auto;html=1;exitX=0.5;exitY=1;exitDx=0;exitDy=0;entryX=0.5;entryY=0;entryDx=0;entryDy=0;" edge="1" parent="WIyWlLk6GJQsqaUBKTNV-1" source="QdtFReI3HZT-71ODESwy-70" target="QdtFReI3HZT-71ODESwy-71">
          <mxGeometry relative="1" as="geometry" />
        </mxCell>
        <mxCell id="QdtFReI3HZT-71ODESwy-70" value="" style="rounded=0;whiteSpace=wrap;html=1;" vertex="1" parent="WIyWlLk6GJQsqaUBKTNV-1">
          <mxGeometry x="120" y="990" width="190" height="60" as="geometry" />
        </mxCell>
        <mxCell id="QdtFReI3HZT-71ODESwy-86" style="edgeStyle=orthogonalEdgeStyle;rounded=0;orthogonalLoop=1;jettySize=auto;html=1;entryX=0.5;entryY=0;entryDx=0;entryDy=0;" edge="1" parent="WIyWlLk6GJQsqaUBKTNV-1" source="QdtFReI3HZT-71ODESwy-71" target="QdtFReI3HZT-71ODESwy-85">
          <mxGeometry relative="1" as="geometry" />
        </mxCell>
        <mxCell id="QdtFReI3HZT-71ODESwy-71" value="OBTAIN THE FINAL RESULT BY REVERSE NORMALIZATION&amp;nbsp;" style="rounded=0;whiteSpace=wrap;html=1;" vertex="1" parent="WIyWlLk6GJQsqaUBKTNV-1">
          <mxGeometry x="140" y="1109" width="150" height="61" as="geometry" />
        </mxCell>
        <mxCell id="QdtFReI3HZT-71ODESwy-72" value="END" style="rounded=1;whiteSpace=wrap;html=1;" vertex="1" parent="WIyWlLk6GJQsqaUBKTNV-1">
          <mxGeometry x="155" y="1310" width="120" height="60" as="geometry" />
        </mxCell>
        <mxCell id="QdtFReI3HZT-71ODESwy-87" style="edgeStyle=orthogonalEdgeStyle;rounded=0;orthogonalLoop=1;jettySize=auto;html=1;entryX=0.5;entryY=0;entryDx=0;entryDy=0;" edge="1" parent="WIyWlLk6GJQsqaUBKTNV-1" source="QdtFReI3HZT-71ODESwy-85" target="QdtFReI3HZT-71ODESwy-72">
          <mxGeometry relative="1" as="geometry" />
        </mxCell>
        <mxCell id="QdtFReI3HZT-71ODESwy-85" value="RMSE" style="rounded=0;whiteSpace=wrap;html=1;" vertex="1" parent="WIyWlLk6GJQsqaUBKTNV-1">
          <mxGeometry x="140" y="1210" width="150" height="60" as="geometry" />
        </mxCell>
        <mxCell id="QdtFReI3HZT-71ODESwy-99" value="" style="ellipse;whiteSpace=wrap;html=1;aspect=fixed;" vertex="1" parent="WIyWlLk6GJQsqaUBKTNV-1">
          <mxGeometry x="270" y="1005" width="30" height="30" as="geometry" />
        </mxCell>
        <mxCell id="QdtFReI3HZT-71ODESwy-100" value="" style="ellipse;whiteSpace=wrap;html=1;aspect=fixed;" vertex="1" parent="WIyWlLk6GJQsqaUBKTNV-1">
          <mxGeometry x="220" y="1005" width="30" height="30" as="geometry" />
        </mxCell>
        <mxCell id="QdtFReI3HZT-71ODESwy-101" value="" style="ellipse;whiteSpace=wrap;html=1;aspect=fixed;" vertex="1" parent="WIyWlLk6GJQsqaUBKTNV-1">
          <mxGeometry x="170" y="1005" width="30" height="30" as="geometry" />
        </mxCell>
        <mxCell id="QdtFReI3HZT-71ODESwy-102" value="" style="ellipse;whiteSpace=wrap;html=1;aspect=fixed;" vertex="1" parent="WIyWlLk6GJQsqaUBKTNV-1">
          <mxGeometry x="125" y="1005" width="30" height="30" as="geometry" />
        </mxCell>
        <mxCell id="QdtFReI3HZT-71ODESwy-103" value="attention&amp;nbsp;" style="text;html=1;strokeColor=none;fillColor=none;align=center;verticalAlign=middle;whiteSpace=wrap;rounded=0;" vertex="1" parent="WIyWlLk6GJQsqaUBKTNV-1">
          <mxGeometry x="330" y="1005" width="40" height="30" as="geometry" />
        </mxCell>
      </root>
    </mxGraphModel>
  </diagram>
</mxfile>
